<?xml version="1.0" encoding="UTF-8"?>
<!-- Generator: https://ezgif.com/png-to-svg -->
<svg version="1.1" xmlns="http://www.w3.org/2000/svg" width="56" height="40">
<path d="M0 0 C18.15 0 36.3 0 55 0 C55 11.88 55 23.76 55 36 C36.85 36 18.7 36 0 36 C0 24.12 0 12.24 0 0 Z M2 2 C2 12.56 2 23.12 2 34 C18.83 34 35.66 34 53 34 C53 23.44 53 12.88 53 2 C36.17 2 19.34 2 2 2 Z " fill="#000000" transform="translate(1,2)"/>
<path d="M0 0 C3 0.25 3 0.25 5 2.25 C5.25 5.25 5.25 5.25 5 8.25 C3 10.25 3 10.25 0 10.5 C-3 10.25 -3 10.25 -5 8.25 C-5.25 5.25 -5.25 5.25 -5 2.25 C-3 0.25 -3 0.25 0 0 Z " fill="#000000" transform="translate(46,21.75)"/>
</svg>
